<?xml version="1.0" encoding="UTF-8"?>
<svg version="1.1" xmlns="http://www.w3.org/2000/svg" width="500" height="500">
<path d="M0 0 C1.7734375 1.3984375 1.7734375 1.3984375 3 3 C2.92074721 6.17011158 2.41911696 7.55094611 0.25 9.875 C-2.59474935 11.29737468 -4.01616624 10.91172698 -7 10 C-7 9.34 -7 8.68 -7 8 C-8.65 8.33 -10.3 8.66 -12 9 C-11.505 10.98 -11.505 10.98 -11 13 C-9.88625 13.1546875 -9.88625 13.1546875 -8.75 13.3125 C-5.77634314 14.05591421 -4.23298242 14.92651632 -2 17 C-0.79809099 20.60572704 -0.67329685 23.2102435 -1 27 C-2.29944744 28.69321939 -3.62926214 30.36395804 -5 32 C-5.05081138 33.97581668 -5.05081138 33.97581668 -4 36 C-3.7525 36.59554687 -3.505 37.19109375 -3.25 37.8046875 C-2.5226637 39.54609846 -1.76338443 41.27408736 -1 43 C-0.319375 41.9275 0.36125 40.855 1.0625 39.75 C3.79989889 35.95916389 6.54460302 33.53412638 11 32 C14.84353546 31.42163943 18.11145374 31.6365038 21.75 33.125 C23.97047552 34.29314478 23.97047552 34.29314478 26 33.125 C26.66 32.75375 27.32 32.3825 28 32 C30.625 31.75 30.625 31.75 33 32 C33.66 32.66 34.32 33.32 35 34 C34.79296875 36.5390625 34.79296875 36.5390625 34.1875 39.625 C33.29297894 44.415016 32.55841049 49.16044241 32 54 C33.98 54.495 33.98 54.495 36 55 C36.99 49.39 37.98 43.78 39 38 C38.34 38 37.68 38 37 38 C38 35 38 35 40.5625 33.3125 C44.84794991 31.67623731 47.43872312 31.55134982 52 32 C54 33.5 54 33.5 55 35 C55.639375 34.505 56.27875 34.01 56.9375 33.5 C61.02233998 31.49926205 64.52179642 31.34832112 69 32 C71.5625 33.5 71.5625 33.5 73 35 C73.61875 34.505 74.2375 34.01 74.875 33.5 C79.14845694 31.44874067 83.32517089 31.1918092 88 32 C90.09324534 33.49321221 90.8722029 34.34040204 91.36328125 36.875 C91.21552768 43.05791881 90.2664306 48.95053241 89 55 C90.32 55 91.64 55 93 55 C93.02578125 54.42636719 93.0515625 53.85273438 93.078125 53.26171875 C93.56904433 45.90908603 94.98114209 38.89252747 96.62792969 31.72729492 C97.60197629 27.38653219 98.20758904 23.47990539 98 19 C98 18.01 98 17.02 98 16 C102.16820277 13.47742533 104.96277153 11.95060817 109.9375 12.1875 C113 13 113 13 114 14 C114.43133333 20.46999998 113.167279 26.65292045 112 33 C112.66 32.67 113.32 32.34 114 32 C118.63518261 31.43450772 122.59939799 31.32325091 126.5625 34 C127.7690625 34.99 127.7690625 34.99 129 36 C130.03125 35.360625 131.0625 34.72125 132.125 34.0625 C135.4062369 32.19604743 138.17053743 31.17406648 142 31 C145 33 145 33 145.3984375 34.9609375 C145.33042748 41.96596957 143.93900749 48.28272405 142 55 C143.65 55 145.3 55 147 55 C148.62656618 47.05205616 148.62656618 47.05205616 148.75 39 C149 36 149 36 151.5 33.5625 C155.87069553 31.61129664 158.25816808 31.5335903 163 32 C163.99 32.66 164.98 33.32 166 34 C166.70125 33.71125 167.4025 33.4225 168.125 33.125 C172.13507266 31.55584113 175.74680523 31.3980581 180 32 C182.625 33.375 182.625 33.375 184 36 C184.23039293 42.41644303 182.49854771 48.80600282 181 55 C182.32 55 183.64 55 185 55 C184.95359375 54.34773438 184.9071875 53.69546875 184.859375 53.0234375 C184.61395744 47.08082648 184.90069538 43.63868681 189 39 C193.72394174 34.35371209 197.85345554 31.93676241 204.5 31.75 C209.57577171 31.89309804 212.62027156 32.58194577 216.25 36.3125 C218.06216872 39.09547339 218.68073673 40.72755153 219 44 C219.103125 44.928125 219.20625 45.85625 219.3125 46.8125 C218.75432167 52.50591898 216.34846628 57.13355313 212 60.875 C205.73080149 65.31568228 200.65857001 65.90813083 193 65 C190.94140625 63.9609375 190.94140625 63.9609375 189.25 62.75 C187.64125 61.88375 187.64125 61.88375 186 61 C183.80261326 61.71605271 182.03151287 62.76853211 180.05078125 63.953125 C176.49902481 65.7662121 173.93195562 65.52426075 170 65 C167.5 63.4375 167.5 63.4375 166 61 C165.47674268 55.66277534 166.32609777 50.30698007 167 45 C166.34 45 165.68 45 165 45 C164.67386719 46.12019531 164.34773437 47.24039063 164.01171875 48.39453125 C163.57081483 49.86733797 163.12938079 51.33998607 162.6875 52.8125 C162.47416016 53.55048828 162.26082031 54.28847656 162.04101562 55.04882812 C161.71713867 56.11713867 161.71713867 56.11713867 161.38671875 57.20703125 C161.09607544 58.18893433 161.09607544 58.18893433 160.79956055 59.19067383 C159.84985376 61.33976605 158.81250065 62.51361636 157 64 C154.08203125 64.73046875 154.08203125 64.73046875 150.8125 65.1875 C149.72582031 65.34605469 148.63914062 65.50460938 147.51953125 65.66796875 C146.27236328 65.83232422 146.27236328 65.83232422 145 66 C144.67 65.01 144.34 64.02 144 63 C143.4328125 63.32355469 142.865625 63.64710938 142.28125 63.98046875 C137.8567108 65.95787411 132.94224575 65.71057771 128.4375 64.0625 C126.08109182 60.68156653 126.69891253 56.98940894 127 53 C126.29875 54.0725 125.5975 55.145 124.875 56.25 C121.73437122 60.65758698 118.16059375 63.27980208 113 65 C101.64622262 65.99939455 101.64622262 65.99939455 97.375 63 C96.59125 62.34 95.8075 61.68 95 61 C92.72100511 60.79490971 92.72100511 60.79490971 90.4375 63 C86.66425417 65.19534303 84.48518033 65.50044908 80.24609375 65.62890625 C76.66793369 64.62702143 75.18486293 62.96013687 73 60 C72.9606313 57.0776311 73.1182086 54.98050241 73.6875 52.1875 C73.80544922 51.49462891 73.92339844 50.80175781 74.04492188 50.08789062 C74.33811077 48.38739502 74.66568089 46.69288977 75 45 C74.01 45.33 73.02 45.66 72 46 C71.1675337 48.48258633 70.51161485 50.8328289 69.9375 53.375 C68.2358798 60.6461803 68.2358798 60.6461803 66 64 C62.9609375 64.73046875 62.9609375 64.73046875 59.375 65.1875 C58.18648437 65.34605469 56.99796875 65.50460938 55.7734375 65.66796875 C54.85820312 65.77753906 53.94296875 65.88710937 53 66 C53.70588974 58.94110263 54.78213386 51.98795036 56 45 C55.01 45.33 54.02 45.66 53 46 C52.1675337 48.48258633 51.51161485 50.8328289 50.9375 53.375 C49.2358798 60.6461803 49.2358798 60.6461803 47 64 C43.9609375 64.73046875 43.9609375 64.73046875 40.375 65.1875 C39.18648438 65.34605469 37.99796875 65.50460938 36.7734375 65.66796875 C35.40058594 65.83232422 35.40058594 65.83232422 34 66 C33.67 65.01 33.34 64.02 33 63 C32.43152344 63.32226562 31.86304688 63.64453125 31.27734375 63.9765625 C27.57769593 65.63918296 23.9771009 65.60859551 20 65 C16.9375 63 16.9375 63 15 61 C14.360625 61.66 13.72125 62.32 13.0625 63 C8.98673389 65.66172481 5.74951348 65.87000434 1 65 C-2.30415704 62.85229792 -2.86413506 61.58874809 -3.75 57.75 C-3.8325 56.8425 -3.915 55.935 -4 55 C-4.99 56.60875 -4.99 56.60875 -6 58.25 C-8.96158003 62.37446033 -12.18913473 64.44840414 -17 66 C-21.46818882 66.61630191 -23.38762223 66.32886954 -27.375 64.1875 C-30 62 -30 62 -31 59 C-31.03874921 57.33378384 -31.0450286 55.66605828 -31 54 C-31.27972656 54.56847656 -31.55945313 55.13695312 -31.84765625 55.72265625 C-36.35895704 64.41162465 -41.74757273 70.4247521 -51 74 C-57.96648427 76.03897101 -64.62444007 75.38869047 -71 72 C-74.52628177 68.93366803 -77.73998829 66.09521063 -78.3359375 61.29296875 C-78.43937331 53.06982224 -77.1985766 49.44462096 -71.5625 43.375 C-66.89779599 39.63112068 -60.67167536 38.5062758 -55 37 C-55.66 36.01 -56.32 35.02 -57 34 C-57.74125025 29.4749258 -57.42616529 25.8864238 -55.4375 21.75 C-49.64064757 15.20996136 -43.58714922 12.56235195 -35 11 C-33.12566655 10.91996648 -31.25050985 10.857155 -29.375 10.8125 C-23.61328473 10.4426324 -20.984363 7.89642069 -16.98046875 3.94921875 C-11.9000845 -1.05100164 -6.72618357 -2.02426096 0 0 Z M-20 20 C-21.485 23.96 -21.485 23.96 -23 28 C-21.515 28.99 -21.515 28.99 -20 30 C-16.71185401 27.27393696 -16.71185401 27.27393696 -15.75 23.25 C-15.8325 22.5075 -15.915 21.765 -16 21 C-17.32 20.67 -18.64 20.34 -20 20 Z M-37 24 C-36.67 25.32 -36.34 26.64 -36 28 C-35.34 28 -34.68 28 -34 28 C-33.67 28.66 -33.34 29.32 -33 30 C-32.01 27.03 -31.02 24.06 -30 21 C-33.51716303 21 -34.37121748 21.82445585 -37 24 Z M-35 31 C-34 33 -34 33 -34 33 Z M-38 34.875 C-40.96373995 36.9743158 -42.24188087 37.3660044 -45.6875 37.9375 C-49.30003832 38.53317167 -49.30003832 38.53317167 -51.625 41.3125 C-52.02539643 44.18200772 -51.79261896 46.22583365 -51 49 C-47.34162756 49.20324291 -45.09983755 48.9829404 -42 47 C-40.2624543 44.75470644 -40.2624543 44.75470644 -38.8125 42.125 C-38.04873047 40.82949219 -38.04873047 40.82949219 -37.26953125 39.5078125 C-36.15026293 37.29682708 -35.46697703 35.41927858 -35 33 C-36.33532114 32.88600981 -36.33532114 32.88600981 -38 34.875 Z M-25 38 C-26.62507196 40.8331162 -26.62507196 40.8331162 -28 44 C-27.67 44.99 -27.34 45.98 -27 47 C-25.68 46.34 -24.36 45.68 -23 45 C-22.67 45.99 -22.34 46.98 -22 48 C-20.68 47.67 -19.36 47.34 -18 47 C-17.3121764 44.64632287 -17.3121764 44.64632287 -17 42 C-18.70892499 38.68539295 -18.70892499 38.68539295 -22.125 38.3125 C-23.07375 38.209375 -24.0225 38.10625 -25 38 Z M111 41 C108.65026182 42.89755144 108.65026182 42.89755144 108.875 46.125 C108.91625 47.07375 108.9575 48.0225 109 49 C110.32 48.67 111.64 48.34 113 48 C114.00217064 44.41672247 114.00217064 44.41672247 113 41 C112.34 41 111.68 41 111 41 Z M202 41 C199.66608797 43.78114056 199.66608797 43.78114056 200.375 46.6875 C200.58125 47.450625 200.7875 48.21375 201 49 C203.0162233 48.28436734 203.0162233 48.28436734 205 47 C205.9049261 45.0480428 205.9049261 45.0480428 206 43 C205.67 42.34 205.34 41.68 205 41 C204.01 41 203.02 41 202 41 Z M17 41 C14.85432087 42.72855926 14.85432087 42.72855926 13 45 C13.13641377 47.21858253 13.13641377 47.21858253 14 49 C15.32 48.67 16.64 48.34 18 48 C18.67958603 45.60280568 18.67958603 45.60280568 19 43 C18.34 42.34 17.68 41.68 17 41 Z M129 42 C130 45 130 45 130 45 Z M-29 47 C-28 49 -28 49 -28 49 Z M128 48 C129 50 129 50 129 50 Z M-30 49 C-29 51 -29 51 -29 51 Z M16 58 C17 60 17 60 17 60 Z " fill="#FBD290" transform="translate(152,129)"/>
<path d="M0 0 C1.9375 1.25 1.9375 1.25 3 3 C2.56521739 8.43478261 2.56521739 8.43478261 1 10 C0.38769531 9.98839844 -0.22460938 9.97679687 -0.85546875 9.96484375 C-3.51377908 9.93367428 -5.48317118 10.11343759 -8 11 C-9.90539621 13.31211651 -11.1526797 15.67911537 -12.515625 18.34375 C-14.69524081 22.24411513 -17.69309148 25.04530659 -21 28 C-20.360625 28.680625 -19.72125 29.36125 -19.0625 30.0625 C-16.6741507 33.46408839 -16.32122847 35.90433701 -16 40 C-15.443125 39.2265625 -15.443125 39.2265625 -14.875 38.4375 C-14.25625 37.633125 -13.6375 36.82875 -13 36 C-12.5978125 35.44441406 -12.195625 34.88882813 -11.78125 34.31640625 C-7.39070261 28.64528254 -2.55919804 25.66703199 4.58984375 24.62109375 C8.86099172 24.4219876 11.60859144 24.82832958 15.5625 26.5625 C18 29 18 29 19.25 32.3125 C18.95348648 36.68607436 17.99703898 38.31294845 15.03515625 41.421875 C11.42863278 44.21848821 7.31410988 45.62732867 3 47 C5.42273863 47.86177951 6.5929689 48.15546869 9.03515625 47.22265625 C10.03869141 46.64837891 10.03869141 46.64837891 11.0625 46.0625 C13.78817702 44.5191704 14.777072 44 18 44 C18.84256281 39.79346033 19.67241313 35.58450944 20.5 31.375 C20.73847656 30.18519531 20.97695312 28.99539062 21.22265625 27.76953125 C21.44824219 26.61582031 21.67382812 25.46210938 21.90625 24.2734375 C22.22045898 22.68668213 22.22045898 22.68668213 22.54101562 21.06787109 C23.00179994 17.9879691 23.07603161 15.10914965 23 12 C23 11.01 23 10.02 23 9 C27.16820277 6.47742533 29.96277153 4.95060817 34.9375 5.1875 C38 6 38 6 39 7 C38.93462405 8.69085991 38.79635274 10.37907507 38.625 12.0625 C38.52574219 13.04992187 38.42648437 14.03734375 38.32421875 15.0546875 C37.92192159 18.70929065 37.48141865 22.35497309 37 26 C37.99 25.505 37.99 25.505 39 25 C43.51190008 24.45928113 46.9356636 24.35214306 50.875 26.75 C52.76463066 28.7507854 54.45543736 30.72380242 56 33 C56.721875 32.236875 57.44375 31.47375 58.1875 30.6875 C61.98985432 27.0541392 64.66916467 24.84752508 70 24.6875 C72.6986594 24.77373536 74.1947461 25.07966886 76.75 26.125 C78.97047552 27.29314478 78.97047552 27.29314478 81 26.125 C81.66 25.75375 82.32 25.3825 83 25 C85.625 24.75 85.625 24.75 88 25 C88.99 25.99 88.99 25.99 90 27 C89.59450275 34.10541768 88.2511935 41.24641949 86 48 C87.32 48 88.64 48 90 48 C90.0825 46.741875 90.165 45.48375 90.25 44.1875 C90.83977402 38.02568189 92.20824539 32.05701663 93.62792969 26.04174805 C94.7204019 21.20129432 95.15280763 16.84412091 94.87280273 11.88110352 C95 10 95 10 97 7.5 C100.90356007 5.54821996 103.62658703 5.14107784 108 5 C108.99 5.66 109.98 6.32 111 7 C111.59163533 13.50798864 110.31021613 19.63609309 109 26 C109.99 25.67 110.98 25.34 112 25 C117.4663919 24.35144503 120.05877256 24.64738603 124.5 28 C125.68193081 28.98191175 126.85423174 29.97612198 128 31 C128.928125 30.195625 129.85625 29.39125 130.8125 28.5625 C135.04905028 24.89082309 138.97658614 24.67530023 144.4140625 24.69921875 C148.37111702 25.15948038 150.7571935 26.74413461 154 29 C154.3125 31.8125 154.3125 31.8125 154 35 C151.5 36.875 151.5 36.875 149 38 C149.7425 38.7115625 149.7425 38.7115625 150.5 39.4375 C152.72126753 43.23216537 152.69031136 46.70472931 152 51 C149.63265822 55.12092829 147.44462244 56.57448384 143 58 C130.05853783 59.30171432 130.05853783 59.30171432 125.25 56.1875 C123 54 123 54 121 51 C120.57332031 51.40992188 120.14664063 51.81984375 119.70703125 52.2421875 C113.82676411 57.31012908 107.76355997 59.08097585 100 59 C97.42274984 58.00684002 96.12215907 56.85008739 94 55 C90.06917046 54.67508923 90.06917046 54.67508923 87.3125 56.5 C83.13132664 58.39336152 79.52352037 58.96135537 75 58 C72.4375 55.5 72.4375 55.5 71 53 C70.195625 53.825 69.39125 54.65 68.5625 55.5 C65.17653444 58.31493574 62.38890869 58.7400805 58.05078125 58.4921875 C56 58 56 58 53.5625 55.75 C50.97959184 51.20408163 50.97959184 51.20408163 50 49 C49.319375 49.7425 48.63875 50.485 47.9375 51.25 C42.90623414 56.15548421 38.97517488 58.24741018 31.9375 58.5 C26.67784126 58.32863267 23.86592537 57.55247196 20 54 C19.67 53.34 19.34 52.68 19 52 C15.56873767 53.2912701 12.53539987 54.84305259 9.375 56.6875 C3.76308246 59.51021076 -0.9726187 59.74775163 -7 58 C-10.09874654 56.24404363 -12.379388 54.24122399 -14 51 C-15.485 51.495 -15.485 51.495 -17 52 C-17.33 52.99 -17.66 53.98 -18 55 C-21.93080062 58.12151814 -25.05450575 58.54949936 -30 58 C-31.875 57 -31.875 57 -33 55 C-34.46980073 48.26341331 -33.73765607 41.80913298 -33 35 C-33.99 35 -34.98 35 -36 35 C-36.15855469 35.75023437 -36.31710938 36.50046875 -36.48046875 37.2734375 C-38.85070006 47.67102678 -42.10141514 57.4477217 -51 64 C-57.95019748 68.06634818 -65.05509076 69.08339671 -73 68 C-78.33910619 66.37392043 -82.02746053 63.80179454 -85 59 C-87.43257761 53.90317073 -87.31795206 49.38809814 -86 44 C-83.48266884 38.96533767 -80.01904803 35.49539912 -75 33 C-71.69424426 32.06859729 -68.40160887 31.45856699 -65 31 C-65.5053125 30.55011719 -66.010625 30.10023438 -66.53125 29.63671875 C-70.4477487 25.7590742 -72.52577513 23.00456572 -72.6875 17.375 C-72.33428676 12.55663823 -71.45657494 9.54298931 -68 6 C-62.41968382 1.52733452 -56.34328488 1.41938242 -49.40625 1.58984375 C-45.38090153 2.07454741 -42.49553478 3.30896695 -38.9453125 5.17578125 C-35.81527716 6.50196088 -33.24288997 5.70753963 -30 5 C-26.1115564 4.64783907 -22.951243 4.4292542 -19.5 6.5 C-19.005 6.995 -18.51 7.49 -18 8 C-17.63648438 7.52949219 -17.27296875 7.05898437 -16.8984375 6.57421875 C-12.05173315 0.57176182 -7.86004912 -3.84269068 0 0 Z M-20 9 C-19 11 -19 11 -19 11 Z M-21 11 C-20 13 -20 13 -20 13 Z M-30 16 C-31.69416426 18.75301692 -32.14163077 20.12661022 -31.625 23.3125 C-31.41875 23.869375 -31.2125 24.42625 -31 25 C-26.34352424 22.24844614 -23.7274296 19.82545236 -21 15 C-21 14.34 -21 13.68 -21 13 C-24.45254095 13 -26.97816127 14.43511923 -30 16 Z M-49 15 C-49 16.32 -49 17.64 -49 19 C-47.68 19 -46.36 19 -45 19 C-45.94940225 22.41784811 -46.8324684 23.86437918 -49.625 26.125 C-53.35999518 28.19999732 -56.96510259 29.60865607 -61 31 C-60.79375 31.7425 -60.5875 32.485 -60.375 33.25 C-59.95591249 36.32330841 -60.38050989 37.42786866 -62 40 C-60.8354799 41.66621425 -60.8354799 41.66621425 -59 43 C-55.6337051 43 -54.15844517 42.122795 -51.5 40.0625 C-48.20192669 36.0223602 -46.15052523 31.72835352 -44 27 C-43.61457031 26.16082031 -43.22914063 25.32164062 -42.83203125 24.45703125 C-41.41722984 21.32608083 -40.08725391 18.26176173 -39 15 C-40.27875 14.814375 -41.5575 14.62875 -42.875 14.4375 C-43.59429687 14.33308594 -44.31359375 14.22867188 -45.0546875 14.12109375 C-47.08140667 13.8315703 -47.08140667 13.8315703 -49 15 Z M3.375 34.5 C2.92125 34.995 2.4675 35.49 2 36 C2.99 36.33 3.98 36.66 5 37 C5.66 36.67 6.32 36.34 7 36 C7 35.01 7 34.02 7 33 C4.87635519 32.77390663 4.87635519 32.77390663 3.375 34.5 Z M141 33 C141.99 33.99 142.98 34.98 144 36 C143.67 35.01 143.34 34.02 143 33 C142.34 33 141.68 33 141 33 Z M36 34 C33.71271266 35.83883881 33.71271266 35.83883881 33.875 38.625 C33.91625 39.40875 33.9575 40.1925 34 41 C34.99 41 35.98 41 37 41 C37.66 40.34 38.32 39.68 39 39 C38.67958603 36.39719432 38.67958603 36.39719432 38 34 C37.34 34 36.68 34 36 34 Z M71 34 C69.33378575 35.1645201 69.33378575 35.1645201 68 37 C68.23043864 39.65466049 68.23043864 39.65466049 69 42 C70.32 41.67 71.64 41.34 73 41 C73.33 39.02 73.66 37.04 74 35 C73.01 34.67 72.02 34.34 71 34 Z M108 34 C105.71271266 35.83883881 105.71271266 35.83883881 105.875 38.625 C105.91625 39.40875 105.9575 40.1925 106 41 C107.32 41 108.64 41 110 41 C110.66 39.35 111.32 37.7 112 36 C110.68 35.34 109.36 34.68 108 34 Z M127 38 C126.34 39.65 125.68 41.3 125 43 C126.32 43.33 127.64 43.66 129 44 C129 42.68 129 41.36 129 40 C128.34 39.34 127.68 38.68 127 38 Z M133 45 C133.71563266 47.0162233 133.71563266 47.0162233 135 49 C137.05000871 49.80528889 137.05000871 49.80528889 139 50 C138.28436734 47.9837767 138.28436734 47.9837767 137 46 C134.94999129 45.19471111 134.94999129 45.19471111 133 45 Z M51 46 C52 48 52 48 52 48 Z " fill="#FBD290" transform="translate(225,198)"/>
<path d="M0 0 C3.08468863 0.80490367 6.03843161 1.82377426 9 3 C9 3.66 9 4.32 9 5 C9.96679688 4.94199219 10.93359375 4.88398437 11.9296875 4.82421875 C20.47961591 4.5279341 26.72111333 5.13330251 34 10 C34.94875 10.598125 35.8975 11.19625 36.875 11.8125 C41.40129886 16.4719253 43.24078972 20.99754023 43.25 27.5 C43.1867057 29.00097911 43.11052603 30.50175822 43 32 C43.9075 32.391875 44.815 32.78375 45.75 33.1875 C49.73155182 35.40798082 51.96930008 37.93860016 54 42 C54.13362091 46.85807463 53.67980781 50.1412954 50.625 54 C46.6442224 57.03297341 43.51503695 57.20619485 38.625 57.3125 C36.94277344 57.36857422 36.94277344 57.36857422 35.2265625 57.42578125 C31.36202124 56.91581152 29.91202504 55.48319944 27 53 C22.95720507 53.72770309 20.7239602 55.00364378 18 58 C17.34 58 16.68 58 16 58 C16 58.66 16 59.32 16 60 C15.34 60 14.68 60 14 60 C14 60.99 14 61.98 14 63 C2.34079685 63.15786155 -4.89208213 58.19369511 -13.125 50.3125 C-15.81354809 47.61916802 -17.43215388 45.81145201 -18 42 C-17.01 42 -16.02 42 -15 42 C-15 41.01 -15 40.02 -15 39 C-14.02676534 37.9739326 -13.02297922 36.97648017 -12 36 C-10.83582708 34.10512734 -10.83582708 34.10512734 -9.875 32.0625 C-9.54242188 31.39347656 -9.20984375 30.72445312 -8.8671875 30.03515625 C-8.01603969 28.0376427 -7.46426176 26.11760212 -7 24 C-8.3921875 23.13375 -8.3921875 23.13375 -9.8125 22.25 C-14.54545455 18.90909091 -14.54545455 18.90909091 -16 16 C-16.55335968 11.0988143 -16.5327637 8.99204276 -14.1875 4.625 C-9.88112577 -0.54264908 -6.31261439 -0.68164381 0 0 Z M-2 25 C-1.67 25.66 -1.34 26.32 -1 27 C1.92713788 27.94934202 3.42831368 28.23176473 6.3125 27.0625 C6.869375 26.711875 7.42625 26.36125 8 26 C4.56484998 25.37542727 1.50935186 25 -2 25 Z M-11 38 C-10.67 38.66 -10.34 39.32 -10 40 C-9.01 39.67 -8.02 39.34 -7 39 C-8.32 38.67 -9.64 38.34 -11 38 Z M-12 43 C-8 44 -8 44 -8 44 Z M10 55 C10 55.66 10 56.32 10 57 C10.66 56.67 11.32 56.34 12 56 C11.34 55.67 10.68 55.34 10 55 Z M12 58 C12.66 58.66 13.32 59.32 14 60 C14 59.34 14 58.68 14 58 C13.34 58 12.68 58 12 58 Z " fill="#FCD291" transform="translate(390,85)"/>
<path d="M0 0 C7.20206776 5.19218839 11.3909514 10.33835513 13.13891602 19.23510742 C13.62434618 22.44067189 14.03107599 25.65206831 14.41601562 28.87109375 C15.37842241 35.89837168 17.26810777 42.14894964 22.8125 46.875 C27.05967502 49.92188642 29.09546623 50.05114739 34.3125 50 C36.09527344 49.98646484 36.09527344 49.98646484 37.9140625 49.97265625 C39.28691406 49.95525391 39.28691406 49.95525391 40.6875 49.9375 C39.17206404 54.48380789 35.8270154 55.82078445 31.6875 57.9375 C24.67326055 60.80759798 17.36293151 60.39380305 10.375 57.625 C2.05283699 52.39945579 -2.02050748 46.49894517 -4.3125 36.9375 C-4.80392604 33.20429587 -5.08645333 29.45285399 -5.34765625 25.69726562 C-5.92362567 19.33443362 -7.68651509 13.74458732 -12.125 9 C-17.15428698 6.55720347 -21.9644881 6.76354617 -27.3125 7.9375 C-20.50802745 -1.3413262 -11.03640714 -3.53997965 0 0 Z " fill="#FBD291" transform="translate(100.3125,235.0625)"/>
<path d="M0 0 C4.26741071 1.79866071 4.26741071 1.79866071 5.828125 3.359375 C5.54082445 5.69882236 5.20875721 8.0332893 4.828125 10.359375 C3.508125 10.689375 2.188125 11.019375 0.828125 11.359375 C1.14007813 11.85566406 1.45203125 12.35195312 1.7734375 12.86328125 C3.92683245 16.62102674 4.90197653 18.63316824 4.453125 23.046875 C2.41780476 27.19579703 0.60642649 28.73769642 -3.171875 31.359375 C-6.47522566 32.46049189 -9.07019637 32.56164028 -12.546875 32.609375 C-13.66835938 32.63515625 -14.78984375 32.6609375 -15.9453125 32.6875 C-20.46230097 32.22814524 -23.00794065 30.52330935 -26.171875 27.359375 C-26.50141932 24.26165835 -26.62522101 22.18606477 -25.109375 19.421875 C-21.91450047 17.66984703 -19.59672176 18.45809954 -16.171875 19.359375 C-13.921875 21.359375 -13.921875 21.359375 -12.171875 23.359375 C-11.181875 23.689375 -10.191875 24.019375 -9.171875 24.359375 C-10.91740187 21.17066266 -10.91740187 21.17066266 -14.046875 20.046875 C-17.87970865 17.97714483 -19.28935395 16.27501878 -21.171875 12.359375 C-21.171875 8.34269669 -20.84779871 6.22176042 -18.359375 3.046875 C-12.80488046 -1.23802079 -6.76668385 -1.99592833 0 0 Z M-7.171875 6.359375 C-7.171875 7.349375 -7.171875 8.339375 -7.171875 9.359375 C-5.191875 9.854375 -5.191875 9.854375 -3.171875 10.359375 C-3.171875 9.699375 -3.171875 9.039375 -3.171875 8.359375 C-4.491875 7.699375 -5.811875 7.039375 -7.171875 6.359375 Z M-3.171875 10.359375 C-2.511875 11.019375 -1.851875 11.679375 -1.171875 12.359375 C-0.841875 11.699375 -0.511875 11.039375 -0.171875 10.359375 C-1.161875 10.359375 -2.151875 10.359375 -3.171875 10.359375 Z " fill="#F9D191" transform="translate(404.171875,161.640625)"/>
<path d="M0 0 C7.27739545 0.37003706 7.27739545 0.37003706 10.4375 3.125 C11.283125 4.07375 12.12875 5.0225 13 6 C14.46278856 7.14621492 15.94366001 8.26955841 17.4375 9.375 C28.06231089 17.51654958 28.06231089 17.51654958 29 24 C26.18947042 27.90351331 21.23952022 29.95874953 17 32 C17 32.66 17 33.32 17 34 C16.34 34 15.68 34 15 34 C15 34.99 15 35.98 15 37 C12.1875 37.1875 12.1875 37.1875 9 37 C7.96662277 36.03453042 6.97287601 35.02640746 6 34 C4.24272497 32.73101018 2.47027858 31.48290358 0.6875 30.25 C-3.99232795 26.89219241 -7.53472367 23.58914973 -11 19 C-11 18.67 -11 18.34 -11 18 C-5.68230088 17.4965492 -3.38049537 18.71386003 0.75 22 C4.01397545 24.96126977 4.01397545 24.96126977 8 26 C6.2527456 24.70462174 4.50208483 23.41383727 2.75 22.125 C1.77546875 21.40570313 0.8009375 20.68640625 -0.203125 19.9453125 C-2.43902154 18.39017775 -4.52872493 17.11795777 -7 16 C-7 15.34 -7 14.68 -7 14 C-0.90161594 14.3030253 2.30194398 17.20735498 6.75 21 C8.07705391 22.10545374 9.40513118 23.20968048 10.734375 24.3125 C11.31413086 24.80363281 11.89388672 25.29476562 12.49121094 25.80078125 C14.00443988 27.08823369 14.00443988 27.08823369 16 28 C16 27.34 16 26.68 16 26 C13.84609994 24.28524461 11.69429308 22.69355122 9.4375 21.125 C8.82841797 20.69058594 8.21933594 20.25617188 7.59179688 19.80859375 C3.52256283 16.94075261 -0.64460758 14.41032013 -5 12 C-3.35 8.04 -1.7 4.08 0 0 Z M11 29 C11 29.66 11 30.32 11 31 C11.66 30.67 12.32 30.34 13 30 C12.34 29.67 11.68 29.34 11 29 Z M13 32 C13.66 32.66 14.32 33.32 15 34 C15 33.34 15 32.68 15 32 C14.34 32 13.68 32 13 32 Z " fill="#FAD293" transform="translate(389,111)"/>
<path d="M0 0 C2.5 1 2.5 1 4 2 C4 2.66 4 3.32 4 4 C4.66 4.33 5.32 4.66 6 5 C6 5.99 6 6.98 6 8 C12.93 7.01 12.93 7.01 20 6 C19.67 7.98 19.34 9.96 19 12 C19.66 12 20.32 12 21 12 C20.8125 13.875 20.8125 13.875 20 16 C17.4375 17.25 17.4375 17.25 15 18 C15.66 19.32 16.32 20.64 17 22 C13.37673261 23.2077558 12.35853631 22.54311128 9 21 C8.34 21.66 7.68 22.32 7 23 C-0.06750303 23.84898242 -7.67899219 23.54838393 -14 20 C-16.34854001 16.9288323 -16.09529902 14.16422506 -15.875 10.4375 C-15.43673461 7.29659807 -15.10753252 6.13979227 -13.125 3.5625 C-8.60972645 0.24244592 -5.55733841 -0.58145191 0 0 Z " fill="#FDD28E" transform="translate(395,86)"/>
<path d="M0 0 C5.2299626 0.3634113 9.36448701 0.97905764 13.5 4.34765625 C16.94497112 8.37292999 18.18674133 13.55434986 19.7265625 18.52734375 C21.68401201 24.97792728 21.68401201 24.97792728 25.9609375 30.0546875 C28.96097675 30.74500795 31.88798657 30.98246002 34.9609375 31.0546875 C34.25435325 34.68854933 33.02123991 36.731043 30.03515625 39.06640625 C25.57509745 41.19144368 20.74275877 40.73780482 15.9609375 40.0546875 C11.79581226 38.34401106 9.8300989 36.32128845 7.7734375 32.4296875 C5.57469826 26.99643929 4.84774378 21.21941523 4.0871582 15.43896484 C3.45828671 10.93487217 2.56429503 7.89121438 -0.0390625 4.0546875 C-0.0390625 3.3946875 -0.0390625 2.7346875 -0.0390625 2.0546875 C-1.0290625 1.7246875 -2.0190625 1.3946875 -3.0390625 1.0546875 C-2.0390625 0.0546875 -2.0390625 0.0546875 0 0 Z " fill="#FBD391" transform="translate(113.0390625,241.9453125)"/>
<path d="M0 0 C0.99 0.33 1.98 0.66 3 1 C4.10489987 3.45533304 4.14543121 4.59951607 3.22265625 7.140625 C2.83980469 7.83671875 2.45695312 8.5328125 2.0625 9.25 C1.68222656 9.95640625 1.30195313 10.6628125 0.91015625 11.390625 C0.60980469 11.92171875 0.30945313 12.4528125 0 13 C1.14275391 13.74443359 1.14275391 13.74443359 2.30859375 14.50390625 C16.66413467 23.9488127 16.66413467 23.9488127 21 28 C21 28.66 21 29.32 21 30 C17.95891342 29.41136262 16.12327906 28.55280553 13.7578125 26.56640625 C13.16613281 26.08236328 12.57445312 25.59832031 11.96484375 25.09960938 C10.74480329 24.08031867 9.52603744 23.05950026 8.30859375 22.03710938 C4.67191071 19.06702008 1.64283412 17.1855555 -3 16 C-3 16.66 -3 17.32 -3 18 C-2.01 18.309375 -2.01 18.309375 -1 18.625 C4.69263821 21.23412584 9.41213107 24.85218806 13 30 C7.86037073 27.52536369 3.27325943 24.53620234 -1.25390625 21.0859375 C-3.1546553 19.90381617 -4.81494026 19.43031811 -7 19 C-2.52355714 26.64725656 3.93786657 31.64468404 11.53125 36.0546875 C12.0159375 36.36664063 12.500625 36.67859375 13 37 C13 37.33 13 37.66 13 38 C3.26693017 38 -4.18713428 30.11698726 -10.7578125 23.640625 C-12.1647074 21.78246192 -12.59410346 20.27698059 -13 18 C-12.01 18 -11.02 18 -10 18 C-10 17.01 -10 16.02 -10 15 C-9.02537586 13.97525233 -8.02175754 12.97775842 -7 12 C-5.83681038 10.07028296 -5.83681038 10.07028296 -4.875 8 C-4.54242188 7.319375 -4.20984375 6.63875 -3.8671875 5.9375 C-2.89656405 3.85457137 -2.89656405 3.85457137 -2 1 C-1.34 0.67 -0.68 0.34 0 0 Z " fill="#FCFAF2" transform="translate(385,109)"/>
<path d="M0 0 C2.31 0.66 4.62 1.32 7 2 C6.19331101 5.48054074 5.37868121 8.959174 4.5625 12.4375 C4.33240234 13.43072266 4.10230469 14.42394531 3.86523438 15.44726562 C3.53168945 16.86362305 3.53168945 16.86362305 3.19140625 18.30859375 C2.98717041 19.18314209 2.78293457 20.05769043 2.57250977 20.95874023 C2 23 2 23 1 24 C-1.33297433 24.04092937 -3.66705225 24.04241723 -6 24 C-7.41409711 19.43475948 -6.35254787 15.97402508 -5.25 11.4375 C-4.99476563 10.28604492 -4.99476563 10.28604492 -4.734375 9.11132812 C-4.5590625 8.37205078 -4.38375 7.63277344 -4.203125 6.87109375 C-3.96577637 5.86453735 -3.96577637 5.86453735 -3.72363281 4.83764648 C-2.87040385 2.67089398 -1.73111764 1.52852111 0 0 Z " fill="#FDD28D" transform="translate(378,147)"/>
<path d="M0 0 C3.79493346 -0.5534278 5.88539706 -0.7083832 9.17578125 1.3828125 C13.64590156 5.15830717 16.57075201 8.1367681 17.24145508 14.1730957 C17.36534029 15.88083408 17.47768173 17.58943717 17.58032227 19.29858398 C18.16399721 28.80618698 18.86848249 37.2903282 25 45 C30.9653065 50.25272722 36.40367917 52.32781179 44.2890625 52.3046875 C48.01446613 51.88598219 50.90092193 50.52040391 54.1875 48.77734375 C54.785625 48.52082031 55.38375 48.26429688 56 48 C56.99 48.495 56.99 48.495 58 49 C51.1111798 54.16661515 44.81891113 55.59531219 36.32421875 54.4765625 C29.41918953 53.06074138 24.13726302 48.98056211 20.3125 43.1875 C15.97034414 36.32774237 15.51244773 28.63324234 14.96484375 20.75976562 C14.39332948 14.44615046 12.70661021 8.70661021 8.125 4.125 C5.49961015 2.73508772 2.84471755 1.84048473 0 1 C0 0.67 0 0.34 0 0 Z " fill="#FEF8E6" transform="translate(80,240)"/>
<path d="M0 0 C2 2 2 2 2.375 4.875 C2 8 2 8 0.5 10.25 C-2.90803282 12.63562297 -5.92870669 13.18574134 -10 14 C-12.72124585 11.19629216 -14 9.86369813 -14 5.875 C-12.85890661 2.5943565 -11.99122737 1.67156824 -9 0 C-5.47955362 -1.17348213 -3.57539179 -0.83679382 0 0 Z " fill="#FAD393" transform="translate(298,146)"/>
<path d="M0 0 C1.11375 0.7425 1.11375 0.7425 2.25 1.5 C0.4375 2.5625 0.4375 2.5625 -1.75 3.5 C-2.74 3.17 -3.73 2.84 -4.75 2.5 C-5.08 3.49 -5.41 4.48 -5.75 5.5 C-6.41 5.17 -7.07 4.84 -7.75 4.5 C-7.42 6.48 -7.09 8.46 -6.75 10.5 C-7.760625 9.675 -8.77125 8.85 -9.8125 8 C-13.53047178 5.33784171 -16.13888597 4.87927311 -20.75 5.5 C-21.74 6.16 -22.73 6.82 -23.75 7.5 C-25.9375 7.125 -25.9375 7.125 -27.75 6.5 C-26.69512267 5.53328244 -25.63066719 4.57701255 -24.5625 3.625 C-23.97082031 3.09132812 -23.37914063 2.55765625 -22.76953125 2.0078125 C-16.60171424 -2.59717274 -6.94716311 -3.49845207 0 0 Z " fill="#FBD393" transform="translate(100.75,235.5)"/>
<path d="M0 0 C1.21236328 0.02707031 1.21236328 0.02707031 2.44921875 0.0546875 C3.37154297 0.08949219 3.37154297 0.08949219 4.3125 0.125 C2.30898139 1.69919319 0.55323864 3.02587233 -1.8125 4 C-4.4800521 5.60053126 -4.78220196 7.18278138 -5.6875 10.125 C-5.71780396 13.0303865 -5.71780396 13.0303865 -5.3125 15.9375 C-5.20164062 16.91332031 -5.09078125 17.88914062 -4.9765625 18.89453125 C-4.88117188 19.63058594 -4.78578125 20.36664063 -4.6875 21.125 C-4.0275 21.125 -3.3675 21.125 -2.6875 21.125 C-3.0175 21.785 -3.3475 22.445 -3.6875 23.125 C-7.1919103 21.23072416 -9.84183427 19.71919117 -11.6875 16.125 C-12.24085968 11.2238143 -12.2202637 9.11704276 -9.875 4.75 C-6.73445025 0.9813403 -4.79515942 -0.13899013 0 0 Z " fill="#FDFBF9" transform="translate(385.6875,84.875)"/>
<path d="M0 0 C10.80219093 6.3212821 19.28091192 14.80631048 25.46484375 25.6875 C27.0624104 28.09401261 28.60128432 29.42503333 31 31 C27.05859564 31.30912975 24.63830712 31.34690605 21.125 29.4375 C19 27 19 27 18.6875 23.8125 C17.43243503 16.85259423 12.33539122 12.71661235 6.80078125 8.6484375 C3.89993795 6.70538743 0.97825338 4.82169832 -2 3 C-1.34 2.01 -0.68 1.02 0 0 Z " fill="#FEF8DF" transform="translate(398,111)"/>
<path d="M0 0 C1.46675824 0.73464575 2.92694957 1.48261099 4.37890625 2.24609375 C7.50894159 3.57227338 10.08132878 2.77785213 13.32421875 2.0703125 C16.13440974 1.77313089 18.46734213 1.83223945 21.32421875 2.0703125 C23.32421875 4.0703125 23.32421875 4.0703125 24.32421875 6.0703125 C23.34327921 8.52266135 22.63718047 9.8512393 20.44921875 11.3828125 C17.97412569 12.1835779 16.74134241 11.93357095 14.32421875 11.0703125 C16.97160791 9.609684 18.21870209 9.0703125 21.32421875 9.0703125 C20.82665783 6.31389834 20.82665783 6.31389834 19.32421875 4.0703125 C17.32463511 4.02950467 15.32376621 4.02776894 13.32421875 4.0703125 C13.32421875 4.7303125 13.32421875 5.3903125 13.32421875 6.0703125 C10.84921875 5.5753125 10.84921875 5.5753125 8.32421875 5.0703125 C8.32421875 5.7303125 8.32421875 6.3903125 8.32421875 7.0703125 C7.33421875 6.7403125 6.34421875 6.4103125 5.32421875 6.0703125 C5.32421875 5.4103125 5.32421875 4.7503125 5.32421875 4.0703125 C4.47859375 3.9465625 3.63296875 3.8228125 2.76171875 3.6953125 C-0.67578125 3.0703125 -0.67578125 3.0703125 -4.17578125 2.0078125 C-7.54402066 1.10560551 -10.21185814 0.82288942 -13.67578125 1.0703125 C-14.00578125 1.4003125 -14.33578125 1.7303125 -14.67578125 2.0703125 C-17.00875558 2.11124187 -19.3428335 2.11272973 -21.67578125 2.0703125 C-16.71285814 -2.89261061 -6.24933884 -2.17130313 0 0 Z " fill="#F2D2A1" transform="translate(181.67578125,200.9296875)"/>
<path d="M0 0 C0.66 0 1.32 0 2 0 C6.1186297 4.90850389 7.03759866 9.71915239 8.0625 15.9375 C9.7671959 26.40933681 9.7671959 26.40933681 15.0625 35.4375 C19.23435788 37.65657334 23.36109222 37.87274367 28 37 C29.79766047 35.57438451 29.79766047 35.57438451 31 34 C30.67 33.01 30.34 32.02 30 31 C31.98 30.67 33.96 30.34 36 30 C35.76908069 33.11741071 34.73145633 34.31934922 32.6875 36.75 C28.7625767 39.81961314 24.65835008 39.64459654 19.84375 39.40625 C15.83160264 38.83308609 13.84338281 37.91446738 11 35 C6.82979639 28.99548003 6.09843952 21.73012663 5.21411133 14.64794922 C4.44832601 9.0621496 2.73508419 4.93772371 0 0 Z " fill="#FBF1D1" transform="translate(112,243)"/>
<path d="M0 0 C2.93685266 1.71025545 5.46957751 3.73877139 8 6 C8.99 5.34 9.98 4.68 11 4 C10.731875 4.66 10.46375 5.32 10.1875 6 C8.99045292 9.02411895 7.87732789 12.07094274 6.78125 15.1328125 C6 17 6 17 4 20 C2.44921875 18.78515625 2.44921875 18.78515625 1 17 C1.14453125 14.80859375 1.14453125 14.80859375 1.8125 12.4375 C2.71087191 9.25960805 2.71087191 9.25960805 3 6 C2.34 5.67 1.68 5.34 1 5 C1 4.01 1 3.02 1 2 C-5.435 2.495 -5.435 2.495 -12 3 C-9.90876689 -1.18246621 -4.12927848 -0.81123878 0 0 Z " fill="#F8CD95" transform="translate(345,223)"/>
<path d="M0 0 C3.07969154 3.07969154 3.27303257 5.16134683 3.4375 9.4375 C1.1897025 7.38516315 0.4352758 6.43082739 -0.5625 3.4375 C-1.2225 3.1075 -1.8825 2.7775 -2.5625 2.4375 C-2.5625 1.7775 -2.5625 1.1175 -2.5625 0.4375 C-5.2025 0.4375 -7.8425 0.4375 -10.5625 0.4375 C-10.5625 2.7475 -10.5625 5.0575 -10.5625 7.4375 C-11.2225 7.4375 -11.8825 7.4375 -12.5625 7.4375 C-12.2325 5.7875 -11.9025 4.1375 -11.5625 2.4375 C-17.51574421 3.83081247 -22.31991484 6.32285757 -27.5625 9.4375 C-25.28055909 4.37848006 -21.73750246 1.47556936 -16.8125 -0.875 C-10.81908915 -2.14283691 -5.68083207 -2.49159301 0 0 Z " fill="#F5D69E" transform="translate(240.5625,224.5625)"/>
<path d="M0 0 C2.5625 1.5 2.5625 1.5 4 3 C4.61875 2.505 5.2375 2.01 5.875 1.5 C10.14845694 -0.55125933 14.32517089 -0.8081908 19 0 C20.79296875 1.23046875 20.79296875 1.23046875 22 3 C22.29296875 5.26171875 22.29296875 5.26171875 22.1875 7.6875 C22.14689453 8.89986328 22.14689453 8.89986328 22.10546875 10.13671875 C22.05326172 11.05904297 22.05326172 11.05904297 22 12 C21.67 12 21.34 12 21 12 C20.34 9.03 19.68 6.06 19 3 C11.91415336 1.67140375 8.09436426 2.13082596 2 6 C1.34 4.68 0.68 3.36 0 2 C-2.97 2 -5.94 2 -9 2 C-9.33 2.99 -9.66 3.98 -10 5 C-11.65 5 -13.3 5 -15 5 C-10.14289923 -0.01900413 -6.90106353 -0.7354597 0 0 Z " fill="#F3D3A2" transform="translate(221,161)"/>
<path d="M0 0 C3.3 0.33 6.6 0.66 10 1 C9.70703125 3.05078125 9.4140625 5.1015625 9.12109375 7.15234375 C9.08113281 7.76207031 9.04117188 8.37179688 9 9 C9.33 9.33 9.66 9.66 10 10 C10.23701239 12.85877909 10.42219182 15.69883297 10.5625 18.5625 C10.60568359 19.36880859 10.64886719 20.17511719 10.69335938 21.00585938 C10.79975262 23.00368805 10.90040888 25.0018207 11 27 C8.17615353 22.7642303 7.93777807 18.19388763 7.23242188 13.24804688 C6.56394499 9.00451131 5.91906273 6.30935524 3 3 C3 2.34 3 1.68 3 1 C1.68 1.33 0.36 1.66 -1 2 C-0.67 1.34 -0.34 0.68 0 0 Z " fill="#F8D698" transform="translate(111,242)"/>
<path d="M0 0 C0.66 0.33 1.32 0.66 2 1 C2 1.66 2 2.32 2 3 C4.17526559 4.5808738 4.17526559 4.5808738 6.9375 6.1875 C12.18852648 9.43878323 17.47431678 12.76485447 22 17 C22 17.66 22 18.32 22 19 C18.98092765 18.41265096 17.14443508 17.57160186 14.79296875 15.6015625 C14.20580078 15.12203125 13.61863281 14.6425 13.01367188 14.1484375 C11.80697628 13.14178235 10.60122859 12.13398971 9.39648438 11.125 C5.43557956 7.89407655 1.79056199 5.80336136 -3 4 C-2.34 3.67 -1.68 3.34 -1 3 C-0.67 2.01 -0.34 1.02 0 0 Z " fill="#FEF6DD" transform="translate(384,120)"/>
<path d="M0 0 C0.9075 0.37125 1.815 0.7425 2.75 1.125 C4.97047552 2.29314478 4.97047552 2.29314478 7 1.125 C7.66 0.75375 8.32 0.3825 9 0 C11.625 -0.25 11.625 -0.25 14 0 C14.66 0.66 15.32 1.32 16 2 C15.625 5.625 15.625 5.625 15 9 C14.67 9 14.34 9 14 9 C14 6.69 14 4.38 14 2 C10.64566891 2.94933899 7.30753495 3.89748835 4 5 C3.01 4.34 2.02 3.68 1 3 C-4.80526777 2.14856073 -8.88170986 3.12876407 -14 6 C-14.66 5.67 -15.32 5.34 -16 5 C-10.49103344 0.89757809 -6.90255894 -0.79209693 0 0 Z " fill="#EFD1A3" transform="translate(299,223)"/>
<path d="M0 0 C0.33 0.66 0.66 1.32 1 2 C1.66 2.33 2.32 2.66 3 3 C2.34 4.65 1.68 6.3 1 8 C3.1060986 7.74462428 5.20988754 7.47014626 7.3125 7.1875 C8.48425781 7.03667969 9.65601563 6.88585937 10.86328125 6.73046875 C14.0881364 5.97947509 14.91514413 5.40560293 17 3 C19.1875 3.3125 19.1875 3.3125 21 4 C13.89070716 8.89751284 8.56602391 9.84644505 0 9 C-2.65990143 7.96641031 -3.88766113 6.99498671 -6 5 C-6 4.34 -6 3.68 -6 3 C-4.02 2.01 -2.04 1.02 0 0 Z " fill="#F8D295" transform="translate(253,185)"/>
<path d="M0 0 C6.3345802 0.22980338 9.78568957 3.62465588 14.375 7.5625 C15.11105469 8.17802734 15.84710938 8.79355469 16.60546875 9.42773438 C18.4127118 10.94159381 20.21016943 12.46563227 22 14 C21.67 15.32 21.34 16.64 21 18 C19 17 19 17 16.6875 13.9375 C13.26268844 9.78309199 8.94185859 7.28119382 4.3190918 4.66577148 C2.85127654 3.82443941 1.42149218 2.91743189 0 2 C0 1.34 0 0.68 0 0 Z " fill="#EDD29F" transform="translate(382,125)"/>
<path d="M0 0 C3.14737182 0.69941596 6.02588876 1.76078698 9 3 C6.14845951 5.85154049 3.99140942 5.67400839 0 6 C-2.94131308 5.86556325 -5.83302037 5.51698505 -8.75 5.125 C-9.50410156 5.03347656 -10.25820313 4.94195312 -11.03515625 4.84765625 C-14.15339811 4.45441438 -17.011244 3.996252 -20 3 C-20 2.34 -20 1.68 -20 1 C-19.0925 1.165 -18.185 1.33 -17.25 1.5 C-11.86217525 2.28873311 -6.43087444 2.08025923 -1 2 C-0.67 1.34 -0.34 0.68 0 0 Z " fill="#EECFA0" transform="translate(403,106)"/>
<path d="M0 0 C-0.66 3.3 -1.32 6.6 -2 10 C-2.33 10 -2.66 10 -3 10 C-3.66 7.69 -4.32 5.38 -5 3 C-7.30142435 4.78174788 -8.80034391 6.16304165 -9.48828125 9.046875 C-9.72323102 11.0246611 -9.86751458 13.01271872 -10 15 C-10.66 15 -11.32 15 -12 15 C-11.52224079 9.45547862 -10.86383815 4.26260185 -9 -1 C-5.79937313 -2.60031344 -3.27728194 -1.03173691 0 0 Z " fill="#F2D29D" transform="translate(385,149)"/>
<path d="M0 0 C2.5625 2 2.5625 2 4 4 C2.96875 3.79375 1.9375 3.5875 0.875 3.375 C-3.22697496 2.97803468 -5.33540122 3.16770061 -9 5 C-10.73538192 7.39224959 -10.73538192 7.39224959 -12 10 C-13.6875 11.8125 -13.6875 11.8125 -15 13 C-14.835 12.236875 -14.67 11.47375 -14.5 10.6875 C-13.90854604 7.96403764 -13.90854604 7.96403764 -14 5 C-13.34 4.67 -12.68 4.34 -12 4 C-11.67 3.01 -11.34 2.02 -11 1 C-7.55789151 -0.72105424 -3.76366353 -0.51474617 0 0 Z " fill="#F6D39B" transform="translate(275,161)"/>
<path d="M0 0 C3 1 3 1 3.875 2.6875 C4.05944047 6.09964861 2.724684 8.10499472 1 11 C-0.6875 12.875 -0.6875 12.875 -2 14 C-2.99 13.67 -3.98 13.34 -5 13 C-5 12.34 -5 11.68 -5 11 C-4.34 11 -3.68 11 -3 11 C-3.0309375 9.3603125 -3.0309375 9.3603125 -3.0625 7.6875 C-3 4 -3 4 -2 1 C-1.34 0.67 -0.68 0.34 0 0 Z " fill="#FCFBF4" transform="translate(385,109)"/>
<path d="M0 0 C8.79136811 -0.62008082 15.62906996 -0.19745067 23 5 C23.33 5.66 23.66 6.32 24 7 C20.97229573 6.55474937 18.94740094 5.96916607 16.28125 4.40625 C12.22164768 2.66642043 9.93480359 3.03998804 5.625 3.8125 C4.37976563 4.02519531 3.13453125 4.23789063 1.8515625 4.45703125 C0.91054688 4.63621094 -0.03046875 4.81539063 -1 5 C-0.67 3.35 -0.34 1.7 0 0 Z " fill="#F1D4A1" transform="translate(401,90)"/>
<path d="M0 0 C1.20628008 2.33214148 2.1654738 4.49642139 3 7 C4.65 7 6.3 7 8 7 C5.48169253 10.12270126 4.2738451 10.94523098 0.25 11.75 C-1.35875 11.87375 -1.35875 11.87375 -3 12 C-2.01 9.69 -1.02 7.38 0 5 C-1.98 5 -3.96 5 -6 5 C-6.33 4.01 -6.66 3.02 -7 2 C-6.01 1.67 -5.02 1.34 -4 1 C-4 1.66 -4 2.32 -4 3 C-2.68 3 -1.36 3 0 3 C0 2.01 0 1.02 0 0 Z " fill="#F3CD95" transform="translate(232,231)"/>
<path d="M0 0 C2.31 0.33 4.62 0.66 7 1 C6.67 1.99 6.34 2.98 6 4 C6.99 4.33 7.98 4.66 9 5 C8.67 6.32 8.34 7.64 8 9 C6.02 9.33 4.04 9.66 2 10 C0.68373308 6.38026598 0 3.90432869 0 0 Z " fill="#FAD18C" transform="translate(286,150)"/>
<path d="M0 0 C-1.88414293 3.76828586 -6.71050961 4.53956543 -10.4765625 5.95703125 C-15.10588647 7.3273522 -19.22503782 7.4850413 -24 7 C-24 6.67 -24 6.34 -24 6 C-23.21753906 5.87882812 -22.43507813 5.75765625 -21.62890625 5.6328125 C-20.11103516 5.38144531 -20.11103516 5.38144531 -18.5625 5.125 C-17.55316406 4.96257812 -16.54382813 4.80015625 -15.50390625 4.6328125 C-14.67761719 4.42398437 -13.85132812 4.21515625 -13 4 C-12.67 3.34 -12.34 2.68 -12 2 C-10.68 2.33 -9.36 2.66 -8 3 C-8 2.34 -8 1.68 -8 1 C-9.65 1 -11.3 1 -13 1 C-13 0.67 -13 0.34 -13 0 C-11.20909747 -0.19466332 -9.41723495 -0.38051213 -7.625 -0.5625 C-6.12839844 -0.71912109 -6.12839844 -0.71912109 -4.6015625 -0.87890625 C-2 -1 -2 -1 0 0 Z " fill="#F3D4A4" transform="translate(141,286)"/>
<path d="M0 0 C2.5 0.25 2.5 0.25 4.5 2.25 C4.29296875 4.75390625 4.29296875 4.75390625 3.6875 7.8125 C2.72512719 12.95964233 2.02090287 18.04097131 1.5 23.25 C0.84 23.25 0.18 23.25 -0.5 23.25 C-1.6577506 19.77674819 -1.56866652 16.88932552 -1.5 13.25 C-0.84 13.25 -0.18 13.25 0.5 13.25 C0.83 10.28 1.16 7.31 1.5 4.25 C-0.48 3.59 -2.46 2.93 -4.5 2.25 C-2.5 0.25 -2.5 0.25 0 0 Z " fill="#ECCF9B" transform="translate(182.5,160.75)"/>
<path d="M0 0 C0.99 0.66 1.98 1.32 3 2 C3.1875 5.625 3.1875 5.625 3 9 C2.401875 9.144375 1.80375 9.28875 1.1875 9.4375 C-0.56150404 9.8872439 -2.28677023 10.42892341 -4 11 C-4.36865539 5.59305432 -4.36865539 5.59305432 -2.5625 2.6875 C-1.72153719 1.77926016 -0.87524798 0.87524798 0 0 Z " fill="#FDD18C" transform="translate(379,151)"/>
<path d="M0 0 C1.22589844 0.01353516 1.22589844 0.01353516 2.4765625 0.02734375 C3.41628906 0.04474609 3.41628906 0.04474609 4.375 0.0625 C2.37148139 1.63669319 0.61573864 2.96337233 -1.75 3.9375 C-4.48077008 5.57596205 -4.82626577 7.00068544 -5.625 10.0625 C-5.77483588 12.75455124 -5.71655081 15.36175116 -5.625 18.0625 C-6.285 17.7325 -6.945 17.4025 -7.625 17.0625 C-7.65225341 15.3334226 -7.67150987 13.60421824 -7.6875 11.875 C-7.69910156 10.91207031 -7.71070313 9.94914062 -7.72265625 8.95703125 C-7.62893905 6.17925356 -7.38032296 3.73700835 -6.625 1.0625 C-4.21954362 -0.14022819 -2.67503047 -0.03821472 0 0 Z " fill="#FEF7E7" transform="translate(385.625,84.9375)"/>
<path d="M0 0 C1.11375 0.7425 1.11375 0.7425 2.25 1.5 C-0.75 2.5 -0.75 2.5 -2.66796875 1.58203125 C-3.35503906 1.22496094 -4.04210937 0.86789063 -4.75 0.5 C-10.80492027 -0.36179087 -15.37388211 0.75708271 -20.75 3.5 C-21.74 3.995 -21.74 3.995 -22.75 4.5 C-23.08 5.49 -23.41 6.48 -23.75 7.5 C-25.07 7.17 -26.39 6.84 -27.75 6.5 C-26.69512267 5.53328244 -25.63066719 4.57701255 -24.5625 3.625 C-23.97082031 3.09132812 -23.37914063 2.55765625 -22.76953125 2.0078125 C-16.60171424 -2.59717274 -6.94716311 -3.49845207 0 0 Z " fill="#F2D7A8" transform="translate(100.75,235.5)"/>
<path d="M0 0 C3.375 0.3125 3.375 0.3125 7 1 C7.66 1.99 8.32 2.98 9 4 C11.20725073 4.36362818 11.20725073 4.36362818 13.625 4.1875 C14.44226563 4.16042969 15.25953125 4.13335937 16.1015625 4.10546875 C16.72804688 4.07066406 17.35453125 4.03585938 18 4 C18 3.01 18 2.02 18 1 C20.50357861 1.8345262 22.66785852 2.79371992 25 4 C20.29887822 6.35056089 15.2300816 7.24345484 10 7 C6.625 5.0625 6.625 5.0625 4 3 C2.68 3 1.36 3 0 3 C0 2.01 0 1.02 0 0 Z " fill="#F0D19E" transform="translate(315,250)"/>
<path d="M0 0 C3 2 3 2 4 5 C4.57289003 11.30179028 4.57289003 11.30179028 2 14.4375 C1.01 15.2109375 1.01 15.2109375 0 16 C-0.80967438 13.08517222 -1.21845993 11.53886783 -0.0625 8.6875 C0.288125 8.130625 0.63875 7.57375 1 7 C0.34 6.01 -0.32 5.02 -1 4 C-0.625 1.8125 -0.625 1.8125 0 0 Z " fill="#F5D59A" transform="translate(147,144)"/>
<path d="M0 0 C0.33 0.66 0.66 1.32 1 2 C-0.32 2.33 -1.64 2.66 -3 3 C-2.68804687 3.53109375 -2.37609375 4.0621875 -2.0546875 4.609375 C-1.66539062 5.31578125 -1.27609375 6.0221875 -0.875 6.75 C-0.48054688 7.44609375 -0.08609375 8.1421875 0.3203125 8.859375 C1 11 1 11 0.1171875 13.265625 C-0.25148438 13.83796875 -0.62015625 14.4103125 -1 15 C-1.87191947 13.61518672 -2.72190384 12.21654754 -3.5625 10.8125 C-4.03816406 10.03519531 -4.51382812 9.25789062 -5.00390625 8.45703125 C-6.19605797 5.51639033 -5.88855164 3.99553637 -5 1 C-3.35 0.67 -1.7 0.34 0 0 Z " fill="#EECF9C" transform="translate(408,170)"/>
<path d="M0 0 C2 0.9375 2 0.9375 4 3 C4.90578074 7.52019427 4.57256408 10.9821083 2.3125 15 C-0.21006769 17.18168017 -1.7129718 17.72608098 -5 18 C-3.60840337 14.52100842 -2.36748512 13.51947499 1 12 C1.02712066 10.56260487 1.04645067 9.12506137 1.0625 7.6875 C1.07410156 6.88699219 1.08570313 6.08648437 1.09765625 5.26171875 C1.09657855 2.83138666 1.09657855 2.83138666 0 0 Z " fill="#EFD39B" transform="translate(373,237)"/>
<path d="M0 0 C3.3 0.33 6.6 0.66 10 1 C8.68 1.99 7.36 2.98 6 4 C6.3403125 4.8971875 6.3403125 4.8971875 6.6875 5.8125 C6.790625 6.534375 6.89375 7.25625 7 8 C5.5625 9.75 5.5625 9.75 4 11 C1.90769231 6.56923077 1.90769231 6.56923077 2.375 3.6875 C2.58125 3.130625 2.7875 2.57375 3 2 C2.01 1.67 1.02 1.34 0 1 C0 0.67 0 0.34 0 0 Z " fill="#F1CE9A" transform="translate(159,226)"/>
<path d="M0 0 C0.33 0.66 0.66 1.32 1 2 C0.07767578 1.96519531 0.07767578 1.96519531 -0.86328125 1.9296875 C-1.67152344 1.91164062 -2.47976563 1.89359375 -3.3125 1.875 C-4.51326172 1.84019531 -4.51326172 1.84019531 -5.73828125 1.8046875 C-8.28388576 1.84182678 -8.28388576 1.84182678 -11 4 C-10.67 6.97 -10.34 9.94 -10 13 C-12.0625 11.375 -12.0625 11.375 -14 9 C-14 5.9375 -14 5.9375 -13 3 C-8.91088017 -0.95281584 -5.41413631 -1.29468477 0 0 Z " fill="#F1D5A5" transform="translate(298,146)"/>
<path d="M0 0 C2.31 0.33 4.62 0.66 7 1 C8.04602058 5.49788849 7.92216326 7.83531294 6 12 C5.63128912 13.65919896 5.28718326 15.3247643 5 17 C4.34 17 3.68 17 3 17 C3.66 12.38 4.32 7.76 5 3 C1.72226496 3.75150023 1.72226496 3.75150023 0 7 C0 4.69 0 2.38 0 0 Z " fill="#F2D09E" transform="translate(222,171)"/>
<path d="M0 0 C0.33 0.66 0.66 1.32 1 2 C1.680625 2.2475 2.36125 2.495 3.0625 2.75 C8.77509948 5.1808934 13.45268005 8.91036703 17 14 C10.62600532 10.9310396 4.85534849 6.94183591 -1 3 C-0.67 2.01 -0.34 1.02 0 0 Z " fill="#FDF3D0" transform="translate(381,125)"/>
<path d="M0 0 C0.33 1.32 0.66 2.64 1 4 C0.34 4 -0.32 4 -1 4 C-0.67 4.99 -0.34 5.98 0 7 C-0.4375 9.6875 -0.4375 9.6875 -1 12 C-2.32 12.33 -3.64 12.66 -5 13 C-5.6875 10.6875 -5.6875 10.6875 -6 8 C-4.75 6.5 -4.75 6.5 -3 5 C-1.96642853 3.35394174 -0.95939668 1.69036558 0 0 Z " fill="#F8F7F4" transform="translate(381,116)"/>
<path d="M0 0 C1.32 0.33 2.64 0.66 4 1 C4.1875 3.875 4.1875 3.875 4 7 C1 9 1 9 -1.1875 8.625 C-1.785625 8.41875 -2.38375 8.2125 -3 8 C-2.67 7.01 -2.34 6.02 -2 5 C-1.34 4.67 -0.68 4.34 0 4 C0 2.68 0 1.36 0 0 Z " fill="#F2D39D" transform="translate(375,226)"/>
<path d="M0 0 C0.33 0.99 0.66 1.98 1 3 C-1.59980864 6.32957948 -4.11064555 6.61761712 -8.1875 7.1875 C-9.27417969 7.34605469 -10.36085938 7.50460938 -11.48046875 7.66796875 C-12.31191406 7.77753906 -13.14335937 7.88710937 -14 8 C-14.33 7.34 -14.66 6.68 -15 6 C-14.67 5.34 -14.34 4.68 -14 4 C-10.04 4 -6.08 4 -2 4 C-2 3.01 -2 2.02 -2 1 C-1.34 0.67 -0.68 0.34 0 0 Z " fill="#F0D29F" transform="translate(311,187)"/>
<path d="M0 0 C0 0.99 0 1.98 0 3 C-5.97332123 6.4753869 -10.11509775 7.57374185 -17 7 C-16.67 6.34 -16.34 5.68 -16 5 C-13.53037395 4.39271491 -11.05649207 4.04256822 -8.54296875 3.66015625 C-5.25769187 2.80729635 -3.29382617 0 0 0 Z " fill="#FDF1D2" transform="translate(419,106)"/>
<path d="M0 0 C0.66 0.33 1.32 0.66 2 1 C0.90081184 1.98475214 -0.2045602 2.96260473 -1.3125 3.9375 C-2.23482422 4.75541016 -2.23482422 4.75541016 -3.17578125 5.58984375 C-6.8156438 8.40352765 -10.26086317 8.10632809 -14.6875 8.0625 C-16.45673828 8.04896484 -16.45673828 8.04896484 -18.26171875 8.03515625 C-19.16535156 8.02355469 -20.06898438 8.01195312 -21 8 C-21 7.67 -21 7.34 -21 7 C-19.91332031 6.90912109 -19.91332031 6.90912109 -18.8046875 6.81640625 C-13.82883467 6.38516567 -8.91319609 5.92952359 -4 5 C-4.33 4.01 -4.66 3.02 -5 2 C-2.625 0.9375 -2.625 0.9375 0 0 Z " fill="#EED09F" transform="translate(406,186)"/>
<path d="M0 0 C-0.99 1.485 -0.99 1.485 -2 3 C-2.99 2.67 -3.98 2.34 -5 2 C-9.66526895 3.29590804 -13.17001115 6.14628282 -17 9 C-17.66 8.67 -18.32 8.34 -19 8 C-13.79005339 2.9691453 -7.66515008 -2.46440524 0 0 Z " fill="#F5D4A2" transform="translate(116,142)"/>
<path d="M0 0 C2.39208319 1.44028588 4.00298538 3.00298538 6 5 C5.01 5.33 4.02 5.66 3 6 C2.34 5.67 1.68 5.34 1 5 C1 4.01 1 3.02 1 2 C-5.435 2.495 -5.435 2.495 -12 3 C-9.90542094 -1.18915812 -4.14645384 -0.73402384 0 0 Z " fill="#F0D0A1" transform="translate(345,223)"/>
<path d="M0 0 C0.33 0 0.66 0 1 0 C1.22226864 1.76913824 1.42733873 3.54044371 1.625 5.3125 C1.74101562 6.29863281 1.85703125 7.28476563 1.9765625 8.30078125 C2 11 2 11 0 14 C-2.625 14.6875 -2.625 14.6875 -5 15 C-5 14.01 -5 13.02 -5 12 C-3.68 12 -2.36 12 -1 12 C-1.01160156 11.30132812 -1.02320313 10.60265625 -1.03515625 9.8828125 C-1.04417969 8.97273437 -1.05320312 8.06265625 -1.0625 7.125 C-1.07410156 6.22007812 -1.08570313 5.31515625 -1.09765625 4.3828125 C-1 2 -1 2 0 0 Z " fill="#F3D19C" transform="translate(338,172)"/>
<path d="M0 0 C3 4 3 4 3 6 C2.34 6.66 1.68 7.32 1 8 C1 8.99 1 9.98 1 11 C0.34 11 -0.32 11 -1 11 C-1.33 12.98 -1.66 14.96 -2 17 C-2.99 17.33 -3.98 17.66 -5 18 C-5.66 17.34 -6.32 16.68 -7 16 C-5.68 16 -4.36 16 -3 16 C-2.01 10.72 -1.02 5.44 0 0 Z " fill="#F3D0A1" transform="translate(191,168)"/>
<path d="M0 0 C1.66611905 -0.042721 3.33382885 -0.04063832 5 0 C6 1 6 1 6.0625 4.0625 C6.041875 5.031875 6.02125 6.00125 6 7 C5.01 7.33 4.02 7.66 3 8 C3 8.66 3 9.32 3 10 C1.68 9.67 0.36 9.34 -1 9 C-1.80967438 6.08517222 -2.21845993 4.53886783 -1.0625 1.6875 C-0.711875 1.130625 -0.36125 0.57375 0 0 Z M2 1 C-0.28728734 2.83883881 -0.28728734 2.83883881 -0.125 5.625 C-0.08375 6.40875 -0.0425 7.1925 0 8 C0.99 8 1.98 8 3 8 C3.66 7.34 4.32 6.68 5 6 C4.67958603 3.39719432 4.67958603 3.39719432 4 1 C3.34 1 2.68 1 2 1 Z " fill="#EECE9C" transform="translate(259,231)"/>
<path d="M0 0 C0.33 0.66 0.66 1.32 1 2 C0.360625 2.598125 -0.27875 3.19625 -0.9375 3.8125 C-3.67740545 6.71846032 -3.98050279 8.46382674 -4.125 12.4375 C-4.02757693 15.21405756 -3.83687001 17.38478123 -3 20 C-3.99 19.34 -4.98 18.68 -6 18 C-6.90123819 13.03101104 -6.94526345 7.70574162 -4.125 3.375 C-2 1 -2 1 0 0 Z " fill="#EFD1A5" transform="translate(159,203)"/>
<path d="M0 0 C0.33 0 0.66 0 1 0 C1 3.96 1 7.92 1 12 C3.97 12.99 6.94 13.98 10 15 C10 15.33 10 15.66 10 16 C3.67164179 16.35820896 3.67164179 16.35820896 1.125 15 C-1.15620872 10.94451783 -1.21671772 6.48606437 -0.5625 2 C-0.2840625 1.01 -0.2840625 1.01 0 0 Z " fill="#EECF9D" transform="translate(192,240)"/>
<path d="M0 0 C0.66 0.99 1.32 1.98 2 3 C0.515 2.62875 0.515 2.62875 -1 2.25 C-5.1762765 1.61207589 -7.73615074 3.02389876 -11.30078125 5.08984375 C-13 6 -13 6 -15 6 C-14 3 -14 3 -11.4375 1.3125 C-7.16831801 -0.31755131 -4.53935321 -0.45393532 0 0 Z " fill="#EFD0A1" transform="translate(204,161)"/>
<path d="M0 0 C2.0625 0.4375 2.0625 0.4375 4 1 C-1.30924655 4.65748095 -4.62205508 6.14837215 -11.0625 6.1875 C-12.12597656 6.20167969 -13.18945312 6.21585938 -14.28515625 6.23046875 C-17 6 -17 6 -19 4 C-18.11957031 4.03480469 -17.23914063 4.06960937 -16.33203125 4.10546875 C-14.58986328 4.14607422 -14.58986328 4.14607422 -12.8125 4.1875 C-11.08966797 4.23970703 -11.08966797 4.23970703 -9.33203125 4.29296875 C-5.42087553 3.9490805 -2.7940149 2.7940149 0 0 Z " fill="#F0CE9D" transform="translate(270,188)"/>
<path d="M0 0 C5.41538462 -0.36923077 5.41538462 -0.36923077 8.375 1.5 C8.91125 1.995 9.4475 2.49 10 3 C9.67 3.66 9.34 4.32 9 5 C8.01 5 7.02 5 6 5 C5.67 5.66 5.34 6.32 5 7 C0 1.125 0 1.125 0 0 Z " fill="#F0D3A3" transform="translate(378,129)"/>
<path d="M0 0 C0.33 0.66 0.66 1.32 1 2 C-0.62339805 3.70884005 -2.29319053 5.37446717 -4 7 C-4.66 7 -5.32 7 -6 7 C-7.625 4.5 -7.625 4.5 -9 2 C-7.88625 1.855625 -6.7725 1.71125 -5.625 1.5625 C-2.17857953 1.21627965 -2.17857953 1.21627965 0 0 Z " fill="#F7D39A" transform="translate(173,238)"/>
<path d="M0 0 C1.2065625 0.0309375 1.2065625 0.0309375 2.4375 0.0625 C2.1075 0.7225 1.7775 1.3825 1.4375 2.0625 C0.4475 2.3925 -0.5425 2.7225 -1.5625 3.0625 C-1.5625 4.7125 -1.5625 6.3625 -1.5625 8.0625 C-0.9025 8.0625 -0.2425 8.0625 0.4375 8.0625 C2.0821674 5.59923288 2.0821674 5.59923288 3.4375 3.0625 C3.7675 3.7225 4.0975 4.3825 4.4375 5.0625 C3 7.6875 3 7.6875 1.4375 10.0625 C-0.2125 9.7325 -1.8625 9.4025 -3.5625 9.0625 C-3.66015625 2.91015625 -3.66015625 2.91015625 -3.5625 1.0625 C-2.5625 0.0625 -2.5625 0.0625 0 0 Z " fill="#F1D2A1" transform="translate(333.5625,230.9375)"/>
<path d="M0 0 C0.33 0.66 0.66 1.32 1 2 C1.66 2 2.32 2 3 2 C3.33 2.66 3.66 3.32 4 4 C5.97888961 4.72693904 7.97954558 5.39816251 10 6 C10 6.33 10 6.66 10 7 C6.8125 7.3125 6.8125 7.3125 3 7 C0.0625 4.5 0.0625 4.5 -2 2 C-1.34 1.34 -0.68 0.68 0 0 Z " fill="#FDF9F5" transform="translate(419,135)"/>
<path d="M0 0 C2.97 0.495 2.97 0.495 6 1 C6 2.65 6 4.3 6 6 C4.68 6.33 3.36 6.66 2 7 C2.33 6.34 2.66 5.68 3 5 C3.66 5 4.32 5 5 5 C5 4.01 5 3.02 5 2 C2.69 3.32 0.38 4.64 -2 6 C-2.66 5.34 -3.32 4.68 -4 4 C-3.34 4 -2.68 4 -2 4 C-1.34 2.68 -0.68 1.36 0 0 Z " fill="#F8D59D" transform="translate(414,104)"/>
<path d="M0 0 C0.66 0.66 1.32 1.32 2 2 C1.01 3.485 1.01 3.485 0 5 C-0.24219315 7.97449608 -0.24219315 7.97449608 -0.125 11.1875 C-0.10695313 12.27417969 -0.08890625 13.36085938 -0.0703125 14.48046875 C-0.04710937 15.31191406 -0.02390625 16.14335938 0 17 C-2.73166874 14.26833126 -2.68363494 12.07945785 -3.046875 8.33203125 C-2.98020875 5.01538537 -1.7656009 2.7543374 0 0 Z " fill="#F4D8A9" transform="translate(382,89)"/>
<path d="M0 0 C0 0.99 0 1.98 0 3 C-0.928125 3.4021875 -0.928125 3.4021875 -1.875 3.8125 C-4.2995233 4.95556848 -4.2995233 4.95556848 -6 8 C-6.33 7.01 -6.66 6.02 -7 5 C-7.66 4.34 -8.32 3.68 -9 3 C-6.38997624 -0.48003168 -4.1689578 -0.27793052 0 0 Z " fill="#F3CD8B" transform="translate(155,172)"/>
<path d="M0 0 C0.33 0 0.66 0 1 0 C1.06058594 0.67546875 1.12117188 1.3509375 1.18359375 2.046875 C1.26738281 2.93890625 1.35117188 3.8309375 1.4375 4.75 C1.55931641 6.07257813 1.55931641 6.07257813 1.68359375 7.421875 C1.96238465 9.69350452 2.38790577 11.79851823 3 14 C2.01 13.67 1.02 13.34 0 13 C-1.18306728 10.63386544 -1.13354608 9.13219264 -1.125 6.5 C-1.12757812 5.7059375 -1.13015625 4.911875 -1.1328125 4.09375 C-1 2 -1 2 0 0 Z " fill="#F2CF9F" transform="translate(96,152)"/>
<path d="M0 0 C-0.99 0.66 -1.98 1.32 -3 2 C-3.72382467 4.05925139 -3.72382467 4.05925139 -4 6 C-4.33 5.01 -4.66 4.02 -5 3 C-7.35171131 3.59861742 -9.6859378 4.26924352 -12 5 C-12.33 5.66 -12.66 6.32 -13 7 C-13 6.01 -13 5.02 -13 4 C-4.738041 -0.59225513 -4.738041 -0.59225513 0 0 Z " fill="#F2D0A0" transform="translate(261,203)"/>
<path d="M0 0 C2 1 2 1 2 1 Z M-3 1 C-2.01 1 -1.02 1 0 1 C0 1.66 0 2.32 0 3 C0.66 3 1.32 3 2 3 C2 3.66 2 4.32 2 5 C3.65 4.67 5.3 4.34 7 4 C7 4.99 7 5.98 7 7 C4.25 7.3125 4.25 7.3125 1 7 C-3 2.89473684 -3 2.89473684 -3 1 Z " fill="#F3D3A2" transform="translate(397,141)"/>
<path d="M0 0 C3.3 0.33 6.6 0.66 10 1 C7.6870518 3.3129482 6.52095125 3.49580975 3.375 4.125 C2.55773437 4.29257813 1.74046875 4.46015625 0.8984375 4.6328125 C-0.04128906 4.81457031 -0.04128906 4.81457031 -1 5 C-0.67 3.35 -0.34 1.7 0 0 Z " fill="#F8E5BF" transform="translate(401,90)"/>
<path d="M0 0 C0.33 1.32 0.66 2.64 1 4 C-5.14285714 9.57142857 -5.14285714 9.57142857 -10 10 C-10 9.34 -10 8.68 -10 8 C-7.69 7.34 -5.38 6.68 -3 6 C-3 5.01 -3 4.02 -3 3 C-2.01 3 -1.02 3 0 3 C0 2.01 0 1.02 0 0 Z " fill="#EFD09E" transform="translate(179,217)"/>
<path d="M0 0 C0.515625 0.37125 1.03125 0.7425 1.5625 1.125 C1.5625 3.435 1.5625 5.745 1.5625 8.125 C1.2325 8.125 0.9025 8.125 0.5625 8.125 C0.5625 6.145 0.5625 4.165 0.5625 2.125 C-0.345 2.33125 -1.2525 2.5375 -2.1875 2.75 C-5.54777897 3.1377245 -6.67825815 2.92911967 -9.4375 1.125 C-3.0375 -1.09038462 -3.0375 -1.09038462 0 0 Z " fill="#F2D59E" transform="translate(295.4375,160.875)"/>
<path d="M0 0 C0.33 0.99 0.66 1.98 1 3 C-1.31 4.98 -3.62 6.96 -6 9 C-6.66 8.67 -7.32 8.34 -8 8 C-6.68 6.68 -5.36 5.36 -4 4 C-4.33 3.01 -4.66 2.02 -5 1 C-3.35 0.67 -1.7 0.34 0 0 Z " fill="#F3E0B1" transform="translate(147,273)"/>
<path d="M0 0 C0.66 0.66 1.32 1.32 2 2 C1.7578125 4.3828125 1.7578125 4.3828125 1.125 7.125 C0.92132813 8.03507813 0.71765625 8.94515625 0.5078125 9.8828125 C0.34023438 10.58148438 0.17265625 11.28015625 0 12 C-0.66 12 -1.32 12 -2 12 C-2.33 8.7 -2.66 5.4 -3 2 C-2.01 1.34 -1.02 0.68 0 0 Z " fill="#F1D2A3" transform="translate(295,170)"/>
<path d="M0 0 C0.33 0 0.66 0 1 0 C1 1.65 1 3.3 1 5 C2.98 5 4.96 5 7 5 C7.33 4.34 7.66 3.68 8 3 C7.67 4.32 7.34 5.64 7 7 C4.69 7 2.38 7 0 7 C-0.93423645 3.98968256 -1.04449911 3.13349732 0 0 Z " fill="#ECCEA4" transform="translate(372,164)"/>
<path d="M0 0 C0.99 0.33 1.98 0.66 3 1 C-2.15709623 5.20710482 -4.28207197 6.12440607 -11 6 C-11 5.67 -11 5.34 -11 5 C-9.9275 4.731875 -8.855 4.46375 -7.75 4.1875 C-4.07759146 3.25184124 -4.07759146 3.25184124 -1.75 1.3125 C-0.88375 0.6628125 -0.88375 0.6628125 0 0 Z " fill="#EFCD9C" transform="translate(113,162)"/>
<path d="M0 0 C3.01657791 0.14030595 5.23841273 0.29351465 7.51171875 2.40234375 C8.73256066 3.88904235 9.87246522 5.44134898 11 7 C10.67 7.66 10.34 8.32 10 9 C9.34 8.01 8.68 7.02 8 6 C6.34467377 4.98133771 4.67739862 3.98189187 3 3 C1.1875 1.3125 1.1875 1.3125 0 0 Z " fill="#F0D29F" transform="translate(432,118)"/>
<path d="M0 0 C0.66 0.33 1.32 0.66 2 1 C1.40606618 2.29640378 0.79942011 3.58698839 0.1875 4.875 C-0.14894531 5.59429687 -0.48539062 6.31359375 -0.83203125 7.0546875 C-2 9 -2 9 -5 11 C-5 9.35 -5 7.7 -5 6 C-4.01 6 -3.02 6 -2 6 C-1.7834375 5.071875 -1.7834375 5.071875 -1.5625 4.125 C-1 2 -1 2 0 0 Z " fill="#F3D3A4" transform="translate(369,178)"/>
<path d="M0 0 C0.99 0.33 1.98 0.66 3 1 C1.20963542 1.94401042 -0.58072917 2.88802083 -2.37109375 3.83203125 C-4.32267987 4.99019799 -4.32267987 4.99019799 -5 8 C-6.32 7.67 -7.64 7.34 -9 7 C-7.87720538 6.01830524 -6.75168527 5.03972702 -5.625 4.0625 C-4.68527344 3.24458984 -4.68527344 3.24458984 -3.7265625 2.41015625 C-2 1 -2 1 0 0 Z " fill="#F9F1DC" transform="translate(82,235)"/>
<path d="M0 0 C0.99 0.33 1.98 0.66 3 1 C0.03 4.96 0.03 4.96 -3 9 C-3 6.12862585 -2.72886734 3.7696959 -2 1 C-1.34 0.67 -0.68 0.34 0 0 Z " fill="#F4CF9D" transform="translate(116,186)"/>
<path d="M0 0 C0.66 0 1.32 0 2 0 C3.26237731 2.52475462 3.09856404 4.31200466 3.0625 7.125 C3.05347656 8.03507813 3.04445313 8.94515625 3.03515625 9.8828125 C3.02355469 10.58148438 3.01195312 11.28015625 3 12 C2.01 12.495 2.01 12.495 1 13 C1 10.03 1 7.06 1 4 C0.34 3.67 -0.32 3.34 -1 3 C-0.67 2.01 -0.34 1.02 0 0 Z " fill="#F2D1A1" transform="translate(318,170)"/>
<path d="M0 0 C0.99 0.99 1.98 1.98 3 3 C2.67 3.66 2.34 4.32 2 5 C1.34 5 0.68 5 0 5 C0 5.66 0 6.32 0 7 C-0.66 7 -1.32 7 -2 7 C-2.6875 5.1875 -2.6875 5.1875 -3 3 C-1.5625 1.25 -1.5625 1.25 0 0 Z " fill="#EFC491" transform="translate(406,138)"/>
<path d="M0 0 C1.25541557 3.76624671 0.37061958 5.37188934 -1 9 C-1.66 9 -2.32 9 -3 9 C-3.33 9.99 -3.66 10.98 -4 12 C-4.66 11.67 -5.32 11.34 -6 11 C-4.02 7.37 -2.04 3.74 0 0 Z " fill="#F1D1A2" transform="translate(117,162)"/>
<path d="M0 0 C1.9375 0.625 1.9375 0.625 4 2 C4.75 5.125 4.75 5.125 5 8 C4.67 7.34 4.34 6.68 4 6 C3.34 5.67 2.68 5.34 2 5 C0 4 0 4 -1 2 C-0.67 1.34 -0.34 0.68 0 0 Z " fill="#F4D39F" transform="translate(145,164)"/>
<path d="M0 0 C2.5 0.25 2.5 0.25 4.5 2.25 C4.5 3.24 4.5 4.23 4.5 5.25 C1.53 4.26 -1.44 3.27 -4.5 2.25 C-2.5 0.25 -2.5 0.25 0 0 Z " fill="#F4D3A5" transform="translate(182.5,160.75)"/>
<path d="M0 0 C-1.4375 1.5625 -1.4375 1.5625 -4 3 C-7.05380927 2.96846324 -9.99653222 2.53266629 -13 2 C-9.16001987 -2.17389144 -5.07563763 -0.9001665 0 0 Z " fill="#F3D3A3" transform="translate(152,129)"/>
<path d="M0 0 C2.97 0.495 2.97 0.495 6 1 C0.85714286 5.42857143 0.85714286 5.42857143 -3 6 C-2.01 4.02 -1.02 2.04 0 0 Z " fill="#F2D1A0" transform="translate(266,249)"/>
<path d="M0 0 C2.00720923 0.28674418 4.0085944 0.61866701 6 1 C6 1.66 6 2.32 6 3 C6.66 3.33 7.32 3.66 8 4 C8 4.66 8 5.32 8 6 C4.54074837 4.7508258 1.85306797 3.32472205 -1 1 C-0.67 0.67 -0.34 0.34 0 0 Z " fill="#F7D6A3" transform="translate(385,121)"/>
<path d="M0 0 C1.32 0.33 2.64 0.66 4 1 C3.67 1.66 3.34 2.32 3 3 C4.98 3 6.96 3 9 3 C8.67 3.66 8.34 4.32 8 5 C5.36 5 2.72 5 0 5 C0 3.35 0 1.7 0 0 Z " fill="#F1CA99" transform="translate(225,243)"/>
<path d="M0 0 C6.4 -0.49230769 6.4 -0.49230769 9.4375 2 C10.2109375 2.99 10.2109375 2.99 11 4 C7.1936543 3.32829194 3.64793184 2.27253436 0 1 C0 0.67 0 0.34 0 0 Z " fill="#FDF4DE" transform="translate(80,240)"/>
<path d="M0 0 C2 2 2 2 2 4 C-0.64 4.66 -3.28 5.32 -6 6 C-4.75453595 2.26360784 -3.36595047 1.81243487 0 0 Z " fill="#F2D7AA" transform="translate(83,236)"/>
<path d="M0 0 C0.93423645 3.01031744 1.04449911 3.86650268 0 7 C-1.98 7 -3.96 7 -6 7 C-6 5.68 -6 4.36 -6 3 C-5.67 3.99 -5.34 4.98 -5 6 C-4.01 5.67 -3.02 5.34 -2 5 C-0.78130071 2.49552484 -0.78130071 2.49552484 0 0 Z " fill="#EBCD9E" transform="translate(266,172)"/>
<path d="M0 0 C2.875 0.3125 2.875 0.3125 6 1 C6.66 1.99 7.32 2.98 8 4 C4.23312136 4 3.08809695 3.76462683 0 2 C0 1.34 0 0.68 0 0 Z " fill="#E2CA9E" transform="translate(382,125)"/>
<path d="M0 0 C0.66 0 1.32 0 2 0 C2.05437607 1.58294782 2.09296271 3.16644256 2.125 4.75 C2.14820313 5.63171875 2.17140625 6.5134375 2.1953125 7.421875 C1.99139502 10.1135858 1.36551721 11.69904974 0 14 C0 9.33333333 0 4.66666667 0 0 Z " fill="#F1CDA2" transform="translate(250,145)"/>
<path d="M0 0 C3.3 0.33 6.6 0.66 10 1 C10 1.33 10 1.66 10 2 C8.35 2 6.7 2 5 2 C4.67 2.66 4.34 3.32 4 4 C3.67 3.01 3.34 2.02 3 1 C1.68 1.33 0.36 1.66 -1 2 C-0.67 1.34 -0.34 0.68 0 0 Z " fill="#EDD5B7" transform="translate(111,242)"/>
<path d="M0 0 C2 1 2 1 2.75 2.9375 C2.8325 3.618125 2.915 4.29875 3 5 C2.34 5.66 1.68 6.32 1 7 C1 6.34 1 5.68 1 5 C0.34 5 -0.32 5 -1 5 C-1.66 3.68 -2.32 2.36 -3 1 C-2.01 0.67 -1.02 0.34 0 0 Z " fill="#F5C693" transform="translate(370,229)"/>
<path d="M0 0 C0.99 0.33 1.98 0.66 3 1 C2.67 3.31 2.34 5.62 2 8 C-1 4.375 -1 4.375 -1 1 C-0.67 0.67 -0.34 0.34 0 0 Z " fill="#F5D098" transform="translate(379,159)"/>
<path d="M0 0 C0.66 0 1.32 0 2 0 C1.7452486 1.31571603 1.47065859 2.62760376 1.1875 3.9375 C1.03667969 4.66839844 0.88585937 5.39929688 0.73046875 6.15234375 C0.48941406 6.76207031 0.24835938 7.37179688 0 8 C-0.99 8.33 -1.98 8.66 -3 9 C-2.01 6.03 -1.02 3.06 0 0 Z " fill="#F3D7A3" transform="translate(389,111)"/>
<path d="M0 0 C0.33 0 0.66 0 1 0 C2.125 6.75 2.125 6.75 1 9 C-1.475 8.01 -1.475 8.01 -4 7 C-2.68 6.67 -1.36 6.34 0 6 C0 4.02 0 2.04 0 0 Z " fill="#F3D39D" transform="translate(245,178)"/>
<path d="M0 0 C1.5625 1.25 1.5625 1.25 3 3 C2.6875 5.1875 2.6875 5.1875 2 7 C1.34 6.67 0.68 6.34 0 6 C0.33 5.34 0.66 4.68 1 4 C0.01 4 -0.98 4 -2 4 C-2 3.34 -2 2.68 -2 2 C-1.34 2 -0.68 2 0 2 C0 1.34 0 0.68 0 0 Z " fill="#F8D8A6" transform="translate(415,130)"/>
<path d="M0 0 C0.99 1.32 1.98 2.64 3 4 C1.02 4.99 1.02 4.99 -1 6 C-1.33 4.35 -1.66 2.7 -2 1 C-1.34 0.67 -0.68 0.34 0 0 Z " fill="#E5E4E8" transform="translate(377,123)"/>
</svg>
